<mxfile host="app.diagrams.net" modified="2023-07-04T01:36:45.644Z" agent="Mozilla/5.0 (Macintosh; Intel Mac OS X 10_15_7) AppleWebKit/537.36 (KHTML, like Gecko) Chrome/114.0.0.0 Safari/537.36" version="21.3.2" etag="5fIjLmbdSYIRFBndMHJ9" type="github">
  <diagram name="第 1 页" id="VylKWat1k1_SL-1F5nBf">
    <mxGraphModel>
      <root>
        <mxCell id="0" />
        <mxCell id="1" parent="0" />
      </root>
    </mxGraphModel>
  </diagram>
</mxfile>
